<svg xmlns="http://www.w3.org/2000/svg" viewBox="0 0 300 492"><defs><style>.cls-1{fill:#fefefe;}.cls-2{fill:#111;}.cls-3{fill:#a72127;}.cls-4{fill:#e5e5e5;}</style></defs><title>Asset 3</title><g id="Layer_2" data-name="Layer 2"><g id="Layer_1-2" data-name="Layer 1"><path class="cls-1" d="M.1,322.31Q.1,166.52,0,10.72c0-3.38.67-4.05,4.09-4q145.91.17,291.82,0c3.42,0,4.09.66,4.09,4q-.18,153.82-.1,307.65h-1c-7-39.28-31.79-68.76-56-98.57q-17.87-28.14-35.75-56.27C178.73,115.33,154.43,65.65,149.9,0c-1.47,54.06-20,94.15-39.42,134L89.06,172.28q-29.29,41.47-58.58,82.94A151.6,151.6,0,0,0,6.21,301Q3.9,311.6,1.61,322.23Z" transform="translate(0)"/><path class="cls-2" d="M30.48,255.22q29.28-41.47,58.58-82.94c49.4,21.8,103.73,28.06,153.87,47.52,24.17,29.81,48.93,59.29,56,98.57.34,1.64.68,3.29,1,4.93v3l-.6,38.19-.57,5.11c-3.69,16.81-8.51,33.19-18.82,47.45C202.1,355.08,111.5,312.33,30.48,255.22Z" transform="translate(0)"/><path class="cls-3" d="M1.61,322.23q2.3-10.64,4.6-21.27c1.51.63,3.08,1.17,4.54,1.91C95.15,345.31,172.84,397.39,243,460.32a157.18,157.18,0,0,1-73,30.91l-34,.69h-9l-7.09-1.14-2-.4L93,481.51C42.12,458.08,11.08,419.45,1.11,364.7Q1.35,343.46,1.61,322.23Z" transform="translate(0)"/><path class="cls-1" d="M1.11,364.7c10,54.75,41,93.38,91.89,116.81l24.87,8.87,2,.4c0,.38.07.76.1,1.14-38.81,0-77.62-.05-116.43.08-3,0-3.59-.58-3.58-3.54C.14,447.21.1,406,.1,364.71Z" transform="translate(0)"/><path class="cls-1" d="M170,491.23a157.18,157.18,0,0,0,73-30.91c15.37-11.9,28.45-25.7,36.93-43.31,10.31-14.26,15.13-30.64,18.82-47.45l1.17.08c0,39.61,0,79.22.09,118.82,0,3-.59,3.55-3.58,3.54q-63.21-.18-126.42-.08A1,1,0,0,0,170,491.23Z" transform="translate(0)"/><path class="cls-4" d="M1.11,364.7H.1v-42.4l1.51-.08Q1.36,343.46,1.11,364.7Z" transform="translate(0)"/><path class="cls-3" d="M299.3,364.45l.6-38.19v38.45A.4.4,0,0,1,299.3,364.45Z" transform="translate(0)"/><path class="cls-4" d="M170,491.23a1,1,0,0,1,0,.69H136Z" transform="translate(0)"/><path class="cls-4" d="M120,491.92c0-.38-.07-.76-.1-1.14l7.09,1.14Z" transform="translate(0)"/><path class="cls-4" d="M299.9,323.3c-.33-1.64-.67-3.29-1-4.93h1Z" transform="translate(0)"/><path class="cls-4" d="M299.3,364.45a.4.4,0,0,0,.6.26v4.93l-1.17-.08Z" transform="translate(0)"/><path class="cls-4" d="M279.91,417c-8.48,17.61-21.56,31.41-36.93,43.31-70.14-62.93-147.83-115-232.23-157.45-1.46-.74-3-1.28-4.54-1.91a151.6,151.6,0,0,1,24.27-45.74C111.5,312.33,202.1,355.08,279.91,417Z" transform="translate(0)"/><path class="cls-4" d="M242.93,219.8c-50.14-19.46-104.47-25.72-153.87-47.52L110.48,134a553.23,553.23,0,0,1,96.7,29.56Q225.06,191.67,242.93,219.8Z" transform="translate(0)"/><path class="cls-3" d="M207.18,163.53A553.23,553.23,0,0,0,110.48,134c19.41-39.82,38-79.91,39.42-134C154.43,65.65,178.73,115.33,207.18,163.53Z" transform="translate(0)"/><path class="cls-4" d="M117.87,490.38,93,481.51Z" transform="translate(0)"/></g></g></svg>